<?xml version="1.0" encoding="UTF-8"?>
<svg id="Camada_1" xmlns="http://www.w3.org/2000/svg" version="1.1" viewBox="0 0 1714.41 388.8">
  <!-- Generator: Adobe Illustrator 29.5.0, SVG Export Plug-In . SVG Version: 2.1.0 Build 137)  -->
  <defs>
    <style>
      .st0 {
        fill: #1d1d1b;
      }

      .st1 {
        fill: #010101;
      }
    </style>
  </defs>
  <g>
    <path class="st1" d="M259.16,33.4c-2.2,1.6-69.1,113.5-69.7,116.3-.4,2.3,3.6,10.3,15.5,30.8,4.3,7.4,6.5,10.2,8.5,10.8,3.9,1.3,8-.9,9.1-4.8.8-2.9.1-4.7-8.2-19.4l-9.2-16.3,28.7-47.9c15.8-26.3,29-47.8,29.4-47.8s13.6,21.6,29.4,47.9l28.7,47.9-9.2,16.2c-8.3,14.7-9.1,16.5-8.2,19.3,1.1,4,5.2,6.2,9.1,4.9,2.2-.7,4.9-4.6,13.5-19.8,7.6-13.3,10.7-19.6,10.5-21.4-.4-2.9-67.3-114.9-69.7-116.7-2.1-1.6-6.1-1.6-8.2,0Z"/>
    <path class="st1" d="M176.96,170.3c-2.9,2.3-106.7,176.4-106.7,179.1,0,1.4.9,3.5,1.9,4.8l1.9,2.4h67.4l1.9-2.4c3-3.7,2.3-6.7-4.6-18.7l-6.4-11.2,18.9-31.6c10.4-17.4,20.7-34.2,22.9-37.3,4.5-6.5,12.6-15.3,18.6-20.1l4-3.2-3.5-6.5c-1.9-3.6-3.7-6.5-4-6.5-.9,0-13.4,11.1-17.3,15.4-2,2.2-5.5,6.3-7.6,9.1-4.3,5.4-45.8,74.2-47.4,78.5-.9,2.3-.4,3.9,3.7,11.4l4.7,8.6h-17c-9.4,0-17.1-.3-17.1-.8,0-.4,20.2-34.4,44.9-75.5l44.9-74.9,2.5,4.4c1.4,2.4,16.5,29.3,33.7,59.8s33.3,59.2,35.9,63.7c3.1,5.6,5.5,8.6,7.4,9.4,6.1,2.6,6.2,2.3,34.5-47.8,19.1-34.1,25.9-46.9,25-47.5-.7-.4-3.6-2.1-6.4-3.8l-5.1-3-9.5,16.7c-5.2,9.3-15.2,27.2-22.4,40-7.1,12.8-13.1,23.2-13.4,23.2s-7.6-12.7-16.3-28.2c-38-68.2-59.8-106.3-61.4-107.5-.9-.6-2.9-1.2-4.3-1.2s-3.4.6-4.3,1.2Z"/>
    <path class="st1" d="M340.56,170.8c-1.5,1.4-10.8,17-18,30.5-.3.6,10.7,7.8,12,7.8.3,0,2.9-4.1,5.7-9.1l5.2-9,44.9,74.8c24.7,41.1,44.9,75.1,44.9,75.5,0,.5-7.7.8-17.1.8h-17l4.7-8.6c4.1-7.5,4.6-9.1,3.7-11.4-1.6-4.1-43-72.9-47.3-78.5-17.6-22.8-41.7-38.3-71-45.6-8.3-2-11.9-2.3-28-2.3-19.2,0-29.1,1.5-42,6.4-2.5.9-5.3,2-6.2,2.3-1.6.6-1.4,1.3,1.9,6.9,2,3.5,3.6,6.4,3.7,6.5.1,0,3.3-.9,7.1-2.2,12.3-4.1,22.2-5.7,35.5-5.7,30.6.1,57.2,11.2,78.3,32.7,9.2,9.3,10.6,11.3,33.6,49.8l19,31.9-6.4,11.2c-6.9,12-7.6,15-4.6,18.7l1.9,2.4h67.4l1.9-2.4c1-1.3,1.9-3.4,1.9-4.8,0-2.6-103.9-176.9-106.7-179.1-2.4-1.7-6.8-1.5-9,.5Z"/>
  </g>
  <g>
    <path class="st0" d="M755.26,63.92v258.22h-16.91V99.25l-99.23,222.89h-13.53l-99.6-222.89v222.89h-16.91V63.92h18.04l105.24,236.04,105.24-236.04h17.67Z"/>
    <path class="st0" d="M966.87,254.48h-125.16l-25.18,67.66h-18.42l96.97-257.84h18.79l96.6,257.84h-18.42l-25.18-67.66ZM961.61,240.2l-57.13-153.73-57.51,153.73h114.64Z"/>
    <path class="st0" d="M1205.36,208.25c10.39,12.28,15.6,26.69,15.6,43.22,0,13.53-3.19,25.62-9.58,36.27-6.39,10.65-15.92,19.05-28.57,25.18-12.66,6.14-28,9.21-46.04,9.21h-83.82V58.28h82.31c26.31,0,46.17,6.08,59.57,18.23,13.4,12.16,20.11,27.88,20.11,47.17,0,16.79-4.51,30.39-13.53,40.78-9.02,10.4-20.55,17.48-34.58,21.24,15.28,2.76,28.12,10.28,38.53,22.55ZM1069.86,178.18h66.15c19.79,0,35.01-4.7,45.67-14.09,10.65-9.4,15.97-22.36,15.97-38.9s-5.26-28.69-15.79-37.96c-10.52-9.27-26.44-13.91-47.74-13.91h-64.27v104.87ZM1185.81,292.25c12.15-10.15,18.23-24.11,18.23-41.91s-6.2-31.51-18.61-41.91c-12.4-10.39-29.38-15.6-50.93-15.6h-64.65v114.64h65.78c21.29,0,38.02-5.07,50.18-15.22Z"/>
    <path class="st0" d="M1285.98,58.28v165c0,29.82,6.77,51.68,20.3,65.59,13.53,13.91,31.95,20.86,55.25,20.86s41.22-6.89,54.5-20.67c13.28-13.78,19.92-35.71,19.92-65.78V58.28h16.91v164.63c0,34.33-8.27,59.89-24.81,76.68-16.54,16.79-38.71,25.18-66.53,25.18s-50.18-8.46-67.09-25.37c-16.91-16.91-25.37-42.41-25.37-76.49V58.28h16.91Z"/>
    <path class="st0" d="M1544.57,315.74c-12.78-6.01-22.74-14.15-29.88-24.43-7.14-10.27-11.22-21.67-12.21-34.2h17.67c2,13.78,8.46,26.06,19.36,36.83,10.9,10.78,27.5,16.16,49.8,16.16,13.03,0,24.37-2.38,34.02-7.14,9.64-4.76,17.1-11.28,22.36-19.54,5.26-8.27,7.89-17.41,7.89-27.44,0-12.78-3.07-22.93-9.21-30.45-6.14-7.52-13.78-13.15-22.93-16.91-9.15-3.76-21.49-7.76-37.02-12.03-17.04-4.51-30.76-9.02-41.16-13.53-10.4-4.51-19.17-11.46-26.31-20.86s-10.71-22.23-10.71-38.53c0-12.53,3.32-23.99,9.96-34.39,6.64-10.4,16.1-18.6,28.38-24.62,12.27-6.01,26.43-9.02,42.47-9.02,23.3,0,42.1,5.77,56.38,17.29,14.28,11.53,22.8,25.69,25.56,42.47h-18.04c-1.5-6.77-4.83-13.65-9.96-20.67-5.14-7.01-12.4-12.84-21.8-17.48-9.4-4.63-20.61-6.95-33.64-6.95-17.54,0-32.32,4.83-44.35,14.47-12.03,9.65-18.04,22.49-18.04,38.53,0,12.78,3.13,22.99,9.4,30.63,6.26,7.65,13.97,13.41,23.12,17.29,9.14,3.89,21.48,7.83,37.02,11.84,17.29,4.76,31.01,9.34,41.16,13.72,10.15,4.39,18.79,11.28,25.93,20.67,7.14,9.4,10.71,22.12,10.71,38.15,0,11.78-3.14,22.93-9.4,33.45-6.27,10.52-15.48,19.11-27.63,25.75-12.16,6.64-26.87,9.96-44.16,9.96s-31.95-3.01-44.73-9.02Z"/>
  </g>
</svg>